<svg xmlns="http://www.w3.org/2000/svg" version="1.1" xmlns:xlink="http://www.w3.org/1999/xlink" xmlns:svgjs="http://svgjs.com/svgjs" width="1440" height="560" preserveAspectRatio="none" viewBox="0 0 1440 560"><g mask="url(&quot;#SvgjsMask1004&quot;)" fill="none"><rect width="1440" height="560" x="0" y="0" fill="#0e2a47"></rect><path d="M277.96 507.12 a42.26 42.26 0 1 0 84.52 0 a42.26 42.26 0 1 0 -84.52 0z" stroke="#e73635"></path><path d="M836.84 413.41 a42.45 42.45 0 1 0 84.9 0 a42.45 42.45 0 1 0 -84.9 0z" fill="#d3b714"></path><path d="M585.81 270.47 a8.15 8.15 0 1 0 16.3 0 a8.15 8.15 0 1 0 -16.3 0z" stroke="#e73635"></path><path d="M152.66 350.82L189.25 350.82L189.25 355.52L152.66 355.52z" stroke="#d3b714"></path><path d="M1339.32 515.1L1391.66 515.1L1391.66 562.41L1339.32 562.41z" stroke="#037b0b"></path><path d="M1240.39 501.55L1283.62 501.55L1283.62 550.28L1240.39 550.28z" stroke="#e73635"></path><path d="M293.82 21.2L310.09 21.2L310.09 44.28L293.82 44.28z" stroke="#d3b714"></path><path d="M60.86 504.04a25.44 25.44 0 1 0 29.75 41.27z" fill="#e73635"></path><path d="M733.97 188.67L789.67 188.67L789.67 191.36L733.97 191.36z" fill="#037b0b"></path><path d="M393.15 511.47a39.63 39.63 0 1 0 4.35-79.14z" stroke="#d3b714"></path><path d="M1091.8 77.55L1098.96 77.55L1098.96 110.19L1091.8 110.19z" fill="#037b0b"></path><path d="M699.48 448.59 a27.99 27.99 0 1 0 55.98 0 a27.99 27.99 0 1 0 -55.98 0z" fill="#e73635"></path><path d="M1164.27 468.65L1212.61 468.65L1212.61 474.68L1164.27 474.68z" stroke="#d3b714"></path><path d="M1197.56 380.45a46.77 46.77 0 1 0-93.52-2.04z" fill="#e73635"></path><path d="M422.63 378.02L463.41 378.02L463.41 409.1L422.63 409.1z" stroke="#d3b714"></path><path d="M670.41 119.18a1.55 1.55 0 1 0 0.74-3.01z" stroke="#037b0b"></path><path d="M1423.95 220.93L1445.59 220.93L1445.59 242.57L1423.95 242.57z" stroke="#037b0b"></path><path d="M1226.88 1.06 a30.77 30.77 0 1 0 61.54 0 a30.77 30.77 0 1 0 -61.54 0z" fill="#e73635"></path><path d="M1027.67 59.25 a35.87 35.87 0 1 0 71.74 0 a35.87 35.87 0 1 0 -71.74 0z" stroke="#e73635"></path><path d="M167.6 403.88L201.08 403.88L201.08 437.36L167.6 437.36z" stroke="#037b0b"></path><path d="M879.44 226.5 a18.91 18.91 0 1 0 37.82 0 a18.91 18.91 0 1 0 -37.82 0z" fill="#e73635"></path><path d="M890.85 89.02L914.9 89.02L914.9 113.07L890.85 113.07z" stroke="#037b0b"></path><path d="M374.62 178.02L418.32 178.02L418.32 221.72L374.62 221.72z" stroke="#d3b714"></path><path d="M265.81 133.88 a30.78 30.78 0 1 0 61.56 0 a30.78 30.78 0 1 0 -61.56 0z" fill="#e73635"></path><path d="M917.57 363.46 a30.28 30.28 0 1 0 60.56 0 a30.28 30.28 0 1 0 -60.56 0z" fill="#037b0b"></path><path d="M1179.05 327.49 a27.79 27.79 0 1 0 55.58 0 a27.79 27.79 0 1 0 -55.58 0z" fill="#037b0b"></path><path d="M147.71 130.75L185.42 130.75L185.42 168.46L147.71 168.46z" fill="#e73635"></path><path d="M699.48 354.12a46.81 46.81 0 1 0-19.1-91.65z" stroke="#037b0b"></path><path d="M1127.2 118.26a31 31 0 1 0-1.83-61.98z" stroke="#e73635"></path><path d="M358.3 472.01L393.06 472.01L393.06 500.49L358.3 500.49z" stroke="#e73635"></path><path d="M753.05 277.45 a38.21 38.21 0 1 0 76.42 0 a38.21 38.21 0 1 0 -76.42 0z" stroke="#e73635"></path><path d="M808.48 177.05a39.11 39.11 0 1 0 70.34 34.2z" fill="#e73635"></path><path d="M143.76 442.54L155.25 442.54L155.25 495.46L143.76 495.46z" stroke="#e73635"></path></g><defs><mask id="SvgjsMask1004"><rect width="1440" height="560" fill="#ffffff"></rect></mask></defs></svg>