<svg xmlns="http://www.w3.org/2000/svg" version="1.1" xmlns:xlink="http://www.w3.org/1999/xlink" xmlns:svgjs="http://svgjs.com/svgjs" width="1440" height="560" preserveAspectRatio="none" viewBox="0 0 1440 560"><g mask="url(&quot;#SvgjsMask1007&quot;)" fill="none"><rect width="1440" height="560" x="0" y="0" fill="#0e2a47"></rect><path d="M1384.79 114.93L1437.18 114.93L1437.18 164.17L1384.79 164.17z" stroke="#037b0b"></path><path d="M675.4 3.07 a14.66 14.66 0 1 0 29.32 0 a14.66 14.66 0 1 0 -29.32 0z" stroke="#037b0b"></path><path d="M28.73 249.71a12.3 12.3 0 1 0-11.31-21.85z" stroke="#d3b714"></path><path d="M1087.69 555.38L1091.7 555.38L1091.7 559.39L1087.69 559.39z" fill="#d3b714"></path><path d="M1269.03 284.96a49.22 49.22 0 1 0-98.24 6.21z" fill="#037b0b"></path><path d="M1304.82 169.18L1306.61 169.18L1306.61 208.77L1304.82 208.77z" fill="#e73635"></path><path d="M1005.99 24.81 a51.17 51.17 0 1 0 102.34 0 a51.17 51.17 0 1 0 -102.34 0z" fill="#037b0b"></path><path d="M649.7 275.67L701.63 275.67L701.63 322.78L649.7 322.78z" stroke="#d3b714"></path><path d="M1167.75 303.06L1184.53 303.06L1184.53 319.84L1167.75 319.84z" stroke="#d3b714"></path><path d="M422.81 300.53L440.73 300.53L440.73 354.11L422.81 354.11z" fill="#e73635"></path><path d="M682.59 223.51L702.58 223.51L702.58 236.04L682.59 236.04z" fill="#d3b714"></path><path d="M1405.77 100.72L1418.14 100.72L1418.14 113.09L1405.77 113.09z" stroke="#037b0b"></path><path d="M1223.77 433.38L1228.7 433.38L1228.7 438.31L1223.77 438.31z" stroke="#037b0b"></path><path d="M983.62 551.1a30.62 30.62 0 1 0 14.29-59.55z" stroke="#037b0b"></path><path d="M816.84 429.75L872.1 429.75L872.1 485.01L816.84 485.01z" stroke="#037b0b"></path><path d="M624.97 372.39L638.27 372.39L638.27 377.74L624.97 377.74z" fill="#037b0b"></path><path d="M1210.34 82.29L1243.06 82.29L1243.06 115.01L1210.34 115.01z" fill="#037b0b"></path><path d="M267.9 351.42L301.14 351.42L301.14 384.66L267.9 384.66z" stroke="#d3b714"></path><path d="M1109.18 167.25 a32.85 32.85 0 1 0 65.7 0 a32.85 32.85 0 1 0 -65.7 0z" stroke="#d3b714"></path><path d="M109.18 72.7 a19.33 19.33 0 1 0 38.66 0 a19.33 19.33 0 1 0 -38.66 0z" fill="#037b0b"></path><path d="M1028.91 388.22a4.67 4.67 0 1 0 5.61-7.47z" stroke="#d3b714"></path><path d="M645.5 264.16a5.1 5.1 0 1 0-2.14-9.97z" stroke="#037b0b"></path><path d="M1371.41 453.55L1371.8 453.55L1371.8 487.21L1371.41 487.21z" fill="#037b0b"></path><path d="M1301.51 254.13L1312.73 254.13L1312.73 265.35L1301.51 265.35z" fill="#d3b714"></path><path d="M780.4 138.34 a1.18 1.18 0 1 0 2.36 0 a1.18 1.18 0 1 0 -2.36 0z" stroke="#037b0b"></path><path d="M18.18 24.5L49.09 24.5L49.09 77.37L18.18 77.37z" fill="#d3b714"></path><path d="M12.62 199.63L50.45 199.63L50.45 234.95L12.62 234.95z" fill="#d3b714"></path><path d="M273.22 514.14L298.64 514.14L298.64 539.56L273.22 539.56z" fill="#037b0b"></path><path d="M476.34 450.11L501.89 450.11L501.89 475.66L476.34 475.66z" fill="#037b0b"></path><path d="M316.64 66.13L331.71 66.13L331.71 81.2L316.64 81.2z" stroke="#d3b714"></path><path d="M989 507.52L1039.06 507.52L1039.06 557.58L989 557.58z" fill="#037b0b"></path><path d="M1303.38 399.83L1329.56 399.83L1329.56 426.01L1303.38 426.01z" fill="#037b0b"></path><path d="M666.92 25.06a18.9 18.9 0 1 0 9.51 36.58z" fill="#d3b714"></path></g><defs><mask id="SvgjsMask1007"><rect width="1440" height="560" fill="#ffffff"></rect></mask></defs></svg>