<svg xmlns="http://www.w3.org/2000/svg" version="1.1" xmlns:xlink="http://www.w3.org/1999/xlink" xmlns:svgjs="http://svgjs.com/svgjs" width="1440" height="560" preserveAspectRatio="none" viewBox="0 0 1440 560"><g mask="url(&quot;#SvgjsMask1002&quot;)" fill="none"><rect width="1440" height="560" x="0" y="0" fill="#0e2a47"></rect><path d="M460.25 551.57 a24.48 24.48 0 1 0 48.96 0 a24.48 24.48 0 1 0 -48.96 0z" stroke="#d3b714"></path><path d="M168.09 57.82a17.37 17.37 0 1 0-30.24-17.09z" fill="#d3b714"></path><path d="M355.52 102.5a15.29 15.29 0 1 0 6.78 29.82z" stroke="#037b0b"></path><path d="M1288.06 256.63 a17.82 17.82 0 1 0 35.64 0 a17.82 17.82 0 1 0 -35.64 0z" stroke="#d3b714"></path><path d="M14.02 100.31L43.22 100.31L43.22 129.51L14.02 129.51z" fill="#e73635"></path><path d="M560.76 514.29L586.83 514.29L586.83 565.64L560.76 565.64z" stroke="#e73635"></path><path d="M1009.68 494.52 a40.66 40.66 0 1 0 81.32 0 a40.66 40.66 0 1 0 -81.32 0z" stroke="#037b0b"></path><path d="M974.19 386.56L1023.62 386.56L1023.62 435.99L974.19 435.99z" stroke="#e73635"></path><path d="M322.56 443.47L352.55 443.47L352.55 473.46L322.56 473.46z" stroke="#037b0b"></path><path d="M1376.13 268.31L1377.44 268.31L1377.44 278.41L1376.13 278.41z" stroke="#d3b714"></path><path d="M371.68 287L385.31 287L385.31 328.97L371.68 328.97z" fill="#d3b714"></path><path d="M686.51 121.36a21.17 21.17 0 1 0-33.22 26.26z" fill="#037b0b"></path><path d="M799.31 237.5 a30.1 30.1 0 1 0 60.2 0 a30.1 30.1 0 1 0 -60.2 0z" fill="#e73635"></path><path d="M980.39 558.91 a41.79 41.79 0 1 0 83.58 0 a41.79 41.79 0 1 0 -83.58 0z" stroke="#e73635"></path><path d="M1011.66 454.56L1065.82 454.56L1065.82 508.72L1011.66 508.72z" fill="#037b0b"></path><path d="M559.5 179.28a20.03 20.03 0 1 0 38.82 9.9z" fill="#037b0b"></path><path d="M534.53 424.51L545.35 424.51L545.35 479.31L534.53 479.31z" fill="#e73635"></path><path d="M1310.64 395.11L1343.76 395.11L1343.76 428.23L1310.64 428.23z" fill="#037b0b"></path><path d="M11.44 181.07a26.72 26.72 0 1 0-18.07 50.29z" stroke="#d3b714"></path><path d="M485.64 260.26a48.61 48.61 0 1 0 88.25 40.8z" stroke="#d3b714"></path><path d="M252.37 491.62a2.03 2.03 0 1 0-3.95 0.93z" stroke="#d3b714"></path><path d="M785.94 211.02L834.76 211.02L834.76 249.08L785.94 249.08z" stroke="#d3b714"></path><path d="M588.92 174.57 a9.14 9.14 0 1 0 18.28 0 a9.14 9.14 0 1 0 -18.28 0z" stroke="#e73635"></path><path d="M851.4 123.24L856.57 123.24L856.57 154.68L851.4 154.68z" fill="#d3b714"></path><path d="M866.73 351.73 a32.53 32.53 0 1 0 65.06 0 a32.53 32.53 0 1 0 -65.06 0z" fill="#d3b714"></path><path d="M1178.89 154.41L1226.04 154.41L1226.04 201.56L1178.89 201.56z" fill="#037b0b"></path><path d="M1209.22 325.08L1242.78 325.08L1242.78 329.04L1209.22 329.04z" stroke="#d3b714"></path><path d="M677.87 82.31a18.06 18.06 0 1 0 31.96 16.84z" stroke="#e73635"></path><path d="M994.53 103.75L1023.07 103.75L1023.07 132.29L994.53 132.29z" stroke="#037b0b"></path><path d="M912.36 547.1L965.92 547.1L965.92 600.66L912.36 600.66z" stroke="#e73635"></path><path d="M1053.11 465.68 a24.03 24.03 0 1 0 48.06 0 a24.03 24.03 0 1 0 -48.06 0z" stroke="#d3b714"></path><path d="M379.88 537.53L428.07 537.53L428.07 568.32L379.88 568.32z" fill="#d3b714"></path><path d="M740 314.77L755.38 314.77L755.38 366.71L740 366.71z" stroke="#e73635"></path></g><defs><mask id="SvgjsMask1002"><rect width="1440" height="560" fill="#ffffff"></rect></mask></defs></svg>