<svg xmlns="http://www.w3.org/2000/svg" version="1.1" xmlns:xlink="http://www.w3.org/1999/xlink" xmlns:svgjs="http://svgjs.com/svgjs" width="1440" height="560" preserveAspectRatio="none" viewBox="0 0 1440 560"><g mask="url(&quot;#SvgjsMask1001&quot;)" fill="none"><rect width="1440" height="560" x="0" y="0" fill="#0e2a47"></rect><path d="M200.85 358.85a6.87 6.87 0 1 0 7.68-11.39z" stroke="#e73635"></path><path d="M63.62 53.75a34.53 34.53 0 1 0 53.22-44.01z" fill="#037b0b"></path><path d="M129.77 184.47L132.66 184.47L132.66 187.36L129.77 187.36z" fill="#e73635"></path><path d="M672.86 483.97 a51.82 51.82 0 1 0 103.64 0 a51.82 51.82 0 1 0 -103.64 0z" fill="#e73635"></path><path d="M881.91 231.87L905.2 231.87L905.2 255.16L881.91 255.16z" fill="#d3b714"></path><path d="M575.44 331.27L597.85 331.27L597.85 349.7L575.44 349.7z" stroke="#e73635"></path><path d="M633.01 375.05L676.64 375.05L676.64 418.68L633.01 418.68z" fill="#d3b714"></path><path d="M1431.4 146.04L1431.97 146.04L1431.97 146.61L1431.4 146.61z" fill="#037b0b"></path><path d="M1353.34 355.42L1379.51 355.42L1379.51 403.2L1353.34 403.2z" fill="#d3b714"></path><path d="M198.45 478.56L230.1 478.56L230.1 491.63L198.45 491.63z" stroke="#037b0b"></path><path d="M572.4 259.26L573.32 259.26L573.32 261.2L572.4 261.2z" stroke="#d3b714"></path><path d="M1048.61 35.92a11.04 11.04 0 1 0-20.4 8.44z" stroke="#d3b714"></path><path d="M778.63 195.81L825.65 195.81L825.65 249.44L778.63 249.44z" fill="#d3b714"></path><path d="M751.47 289.02L792.93 289.02L792.93 334.71L751.47 334.71z" fill="#e73635"></path><path d="M164.69 144.09a44.76 44.76 0 1 0-64.01-62.58z" fill="#037b0b"></path><path d="M650.54 104.41 a8.48 8.48 0 1 0 16.96 0 a8.48 8.48 0 1 0 -16.96 0z" stroke="#d3b714"></path><path d="M124.4 79.95 a37.71 37.71 0 1 0 75.42 0 a37.71 37.71 0 1 0 -75.42 0z" fill="#d3b714"></path><path d="M926.24 207.63L931.95 207.63L931.95 241.05L926.24 241.05z" stroke="#037b0b"></path><path d="M77.24 330.28L128.49 330.28L128.49 376.4L77.24 376.4z" fill="#e73635"></path><path d="M1096.06 48.15 a23.97 23.97 0 1 0 47.94 0 a23.97 23.97 0 1 0 -47.94 0z" fill="#d3b714"></path><path d="M1213.48 340.36L1267.62 340.36L1267.62 394.5L1213.48 394.5z" stroke="#d3b714"></path><path d="M1357.4 320.28L1399.77 320.28L1399.77 360.13L1357.4 360.13z" fill="#037b0b"></path><path d="M283.46 363.57L338.01 363.57L338.01 418.12L283.46 418.12z" stroke="#d3b714"></path><path d="M27.58 272.33L48.99 272.33L48.99 321.83L27.58 321.83z" fill="#d3b714"></path><path d="M532.24 557.61 a3.6 3.6 0 1 0 7.2 0 a3.6 3.6 0 1 0 -7.2 0z" fill="#037b0b"></path><path d="M714.62 411.27 a53.3 53.3 0 1 0 106.6 0 a53.3 53.3 0 1 0 -106.6 0z" fill="#e73635"></path><path d="M545.53 331.88L567.38 331.88L567.38 353.73L545.53 353.73z" stroke="#037b0b"></path><path d="M630.01 267.56L670.98 267.56L670.98 308.53L630.01 308.53z" fill="#d3b714"></path><path d="M971.61 221.4a39.77 39.77 0 1 0 34.22-71.81z" stroke="#d3b714"></path><path d="M314.76 170.26a35.54 35.54 0 1 0 11.35-70.17z" fill="#e73635"></path><path d="M210.95 519.59 a36.42 36.42 0 1 0 72.84 0 a36.42 36.42 0 1 0 -72.84 0z" fill="#d3b714"></path><path d="M253.54 126.8a10.9 10.9 0 1 0-21.5 3.58z" fill="#037b0b"></path><path d="M198.45 461.43L250.67 461.43L250.67 513.65L198.45 513.65z" fill="#d3b714"></path></g><defs><mask id="SvgjsMask1001"><rect width="1440" height="560" fill="#ffffff"></rect></mask></defs></svg>